<?xml version="1.0" encoding="UTF-8" standalone="no"?>
<!-- Created with Inkscape (http://www.inkscape.org/) -->

<svg
   xmlns:dc="http://purl.org/dc/elements/1.1/"
   xmlns:cc="http://creativecommons.org/ns#"
   xmlns:rdf="http://www.w3.org/1999/02/22-rdf-syntax-ns#"
   xmlns:svg="http://www.w3.org/2000/svg"
   xmlns="http://www.w3.org/2000/svg"
   xmlns:sodipodi="http://sodipodi.sourceforge.net/DTD/sodipodi-0.dtd"
   xmlns:inkscape="http://www.inkscape.org/namespaces/inkscape"
   id="svg2"
   version="1.1"
   inkscape:version="0.48.3.1 r9886"
   width="201.9625"
   height="154.9875"
   xml:space="preserve"
   sodipodi:docname="logo-small.png"><metadata
     id="metadata8"><rdf:RDF><cc:Work
         rdf:about=""><dc:format>image/svg+xml</dc:format><dc:type
           rdf:resource="http://purl.org/dc/dcmitype/StillImage" /><dc:title></dc:title></cc:Work></rdf:RDF></metadata><defs
     id="defs6"><clipPath
       clipPathUnits="userSpaceOnUse"
       id="clipPath20"><path
         d="m 0,123.99 161.57,0 L 161.57,0 0,0 0,123.99 z"
         id="path22" /></clipPath></defs><sodipodi:namedview
     pagecolor="#ffffff"
     bordercolor="#666666"
     borderopacity="1"
     objecttolerance="10"
     gridtolerance="10"
     guidetolerance="10"
     inkscape:pageopacity="0"
     inkscape:pageshadow="2"
     inkscape:window-width="1669"
     inkscape:window-height="995"
     id="namedview4"
     showgrid="false"
     inkscape:zoom="12.181627"
     inkscape:cx="184.69955"
     inkscape:cy="87.568967"
     inkscape:window-x="-3"
     inkscape:window-y="-3"
     inkscape:window-maximized="1"
     inkscape:current-layer="g10" /><g
     id="g10"
     inkscape:groupmode="layer"
     inkscape:label="logo-small"
     transform="matrix(1.25,0,0,-1.25,0,154.9875)"><g
       id="g12"
       transform="translate(14.9941,122.6265)"><path
         d="m 0,0 43.548,0 0,-8.597 -16.489,0 0,-85.829 -10.428,0 0,85.688 L 0,-8.738 0,0 z"
         style="fill:#000000;fill-opacity:1;fill-rule:nonzero;stroke:none"
         id="path14" /></g><g
       id="g16"><g
         id="g18"
         clip-path="url(#clipPath20)"><g
           id="g24"
           transform="translate(14.9941,122.6265)"><path
             d="m 0,0 43.548,0 0,-8.597 -16.489,0 0,-85.829 -10.428,0 0,85.688 L 0,-8.738 0,0 z"
             style="fill:none;stroke:#231f20;stroke-opacity:1;stroke-width:1;stroke-linecap:butt;stroke-linejoin:miter;stroke-miterlimit:10;stroke-dasharray:none"
             id="path26" /></g><g
           id="g28"
           transform="translate(86.6943,87.9917)"><path
             d="m 0,0 2.22,9.196 -11.31,0 c 0,0 -17.652,0.105 -17.652,-16.384 l 0,-52.532 10.359,0 0,51.158 c 0,0 -0.634,8.456 9.301,8.456 L 0,0 z"
             style="fill:#000000;fill-opacity:1;fill-rule:nonzero;stroke:none"
             id="path30" /></g><g
           id="g32"
           transform="translate(86.6943,87.9917)"><path
             d="m 0,0 2.22,9.196 -11.31,0 c 0,0 -17.652,0.105 -17.652,-16.384 l 0,-52.532 10.359,0 0,51.158 c 0,0 -0.634,8.456 9.301,8.456 L 0,0 z"
             style="fill:none;stroke:#231f20;stroke-opacity:1;stroke-width:1;stroke-linecap:butt;stroke-linejoin:miter;stroke-miterlimit:10;stroke-dasharray:none"
             id="path34" /></g><g
           id="g36"
           transform="translate(95.6084,82.0361)"><path
             style="fill:#000000;fill-opacity:1;fill-rule:nonzero;stroke:none"
             d="M 148.40625 33.0625 C 118.92 33.0625 119.5 52.4375 119.5 52.4375 L 119.6875 136.46875 C 119.6875 136.46875 119.865 154.09375 147.875 154.09375 C 175.88625 154.09375 174.46875 134.875 174.46875 134.875 C 174.46875 134.875 174.3125 140.00125 174.3125 123.96875 C 174.3125 107.93875 154.56 105.46875 141.875 101.59375 C 129.895 100.185 132.71875 89.78125 132.71875 89.78125 C 132.71875 75.33375 149.8125 78 149.8125 78 C 177.64875 78 174.8125 58.96875 174.8125 58.96875 L 174.8125 51.21875 C 174.8125 51.21875 177.8925 33.0625 148.40625 33.0625 z M 146.8125 45.21875 C 159.66125 45.0425 161.25 53.40625 161.25 53.40625 L 161.09375 59.3125 C 161.09375 59.3125 159.75625 67.5 151.125 67.5 C 142.4925 67.5 140.8125 67.40625 140.8125 67.40625 C 140.8125 67.40625 136.1925 67.37 132.625 70.9375 L 132.625 52.4375 C 132.625 52.4375 135.01 45.38125 146.8125 45.21875 z M 133.59375 113.96875 C 137.09625 117.89875 141.625 117.84375 141.625 117.84375 C 141.625 117.84375 143.2775 117.75 151.75 117.75 C 160.225 117.75 161.53125 126.75 161.53125 126.75 L 161.6875 133.25 C 161.6875 133.25 160.1425 142.47375 147.53125 142.28125 C 135.94625 142.10125 133.59375 134.34375 133.59375 134.34375 L 133.59375 113.96875 z "
             transform="matrix(0.8,0,0,-0.8,-95.6084,41.9539)"
             id="path38" /></g><g
           id="g40"
           transform="translate(95.6084,82.0361)"><path
             d="m 0,0 c 0,0 -0.476,15.503 23.113,15.503 23.589,0 21.14,-14.516 21.14,-14.516 l 0,-6.201 c 0,0 2.257,-15.221 -20.012,-15.221 0,0 -13.672,2.115 -13.672,-9.443 0,0 -2.254,-8.315 7.33,-9.442 10.148,-3.1 25.931,-5.074 25.931,-17.898 0,-12.826 0.141,-8.738 0.141,-8.738 0,0 1.128,-15.361 -21.281,-15.361 -22.408,0 -22.548,14.092 -22.548,14.092 L 0,0 z"
             style="fill:none;stroke:#231f20;stroke-opacity:1;stroke-width:1;stroke-linecap:butt;stroke-linejoin:miter;stroke-miterlimit:10;stroke-dasharray:none"
             id="path42" /></g><g
           id="g44"
           transform="translate(106.1035,67.2368)" /><g
           id="g48"
           transform="translate(106.1035,67.2368)"><path
             d="m 0,0 0,14.798 c 0,0 1.903,5.648 11.345,5.778 C 21.624,20.717 22.9,14.022 22.9,14.022 L 22.761,9.301 c 0,0 -1.058,-6.553 -7.963,-6.553 -6.906,0 -8.244,0.069 -8.244,0.069 0,0 -3.7,0.037 -6.554,-2.817 z"
             style="fill:none;stroke:#231f20;stroke-opacity:1;stroke-width:1;stroke-linecap:butt;stroke-linejoin:miter;stroke-miterlimit:10;stroke-dasharray:none"
             id="path50" /></g><g
           id="g52"
           transform="translate(106.8779,32.8252)" /><g
           id="g56"
           transform="translate(106.8779,32.8252)"><path
             d="m 0,0 0,-16.3 c 0,0 1.868,-6.221 11.136,-6.365 10.089,-0.154 11.343,7.22 11.343,7.22 l -0.139,5.199 c 0,0 -1.036,7.219 -7.816,7.219 -6.778,0 -8.092,-0.078 -8.092,-0.078 0,0 -3.63,-0.039 -6.432,3.105 z"
             style="fill:none;stroke:#231f20;stroke-opacity:1;stroke-width:1;stroke-linecap:butt;stroke-linejoin:miter;stroke-miterlimit:10;stroke-dasharray:none"
             id="path58" /></g><g
           id="g60"
           transform="translate(19.8472,72.6626)"><path
             d="m 0,0 c 0,-2.543 -2.061,-4.604 -4.604,-4.604 -2.544,0 -4.605,2.061 -4.605,4.604 0,2.543 2.061,4.604 4.605,4.604 C -2.061,4.604 0,2.543 0,0"
             style="fill:#000000;fill-opacity:1;fill-rule:nonzero;stroke:none"
             id="path62" /></g><g
           id="g64"
           transform="translate(17.5151,67.416)"><path
             d="m 0,0 c 0,-1.32 -1.068,-2.388 -2.39,-2.388 -1.319,0 -2.388,1.068 -2.388,2.388 0,1.321 1.069,2.39 2.388,2.39 C -1.068,2.39 0,1.321 0,0"
             style="fill:#000000;fill-opacity:1;fill-rule:nonzero;stroke:none"
             id="path66" /></g><g
           id="g68"
           transform="translate(9.4141,77.1499)"><path
             d="M 0,0 0,-6.411 3.556,-10.083 3.964,-8.917 0.466,-6.178 0,0 z"
             style="fill:#000000;fill-opacity:1;fill-rule:nonzero;stroke:none"
             id="path70" /></g><g
           id="g72"
           transform="translate(9.4141,77.1499)"><path
             d="M 0,0 0,-6.411 3.556,-10.083 3.964,-8.917 0.466,-6.178 0,0 z"
             style="fill:none;stroke:#231f20;stroke-opacity:1;stroke-width:1;stroke-linecap:butt;stroke-linejoin:miter;stroke-miterlimit:10;stroke-dasharray:none"
             id="path74" /></g><g
           id="g76"
           transform="translate(21.2295,77.1504)"><path
             d="M 0,0 -0.203,-6.408 -3.87,-9.966 -4.239,-8.787 -0.661,-6.161 0,0 z"
             style="fill:#000000;fill-opacity:1;fill-rule:nonzero;stroke:none"
             id="path78" /></g><g
           id="g80"
           transform="translate(21.2295,77.1504)"><path
             d="M 0,0 -0.203,-6.408 -3.87,-9.966 -4.239,-8.787 -0.661,-6.161 0,0 z"
             style="fill:none;stroke:#231f20;stroke-opacity:1;stroke-width:1;stroke-linecap:butt;stroke-linejoin:miter;stroke-miterlimit:10;stroke-dasharray:none"
             id="path82" /></g><g
           id="g84"
           transform="translate(12.9702,67.0674)"><path
             d="M 0,0 C 0,0 -5.013,1.632 -8.801,-1.982 -7.112,-0.991 -5.246,0.699 0,0"
             style="fill:#000000;fill-opacity:1;fill-rule:nonzero;stroke:none"
             id="path86" /></g><g
           id="g88"
           transform="translate(12.9702,67.0674)"><path
             d="M 0,0 C 0,0 -5.013,1.632 -8.801,-1.982 -7.112,-0.991 -5.246,0.699 0,0 z"
             style="fill:none;stroke:#231f20;stroke-opacity:1;stroke-width:1;stroke-linecap:butt;stroke-linejoin:miter;stroke-miterlimit:10;stroke-dasharray:none"
             id="path90" /></g><g
           id="g92"
           transform="translate(15.8257,66.9502)"><path
             d="M 0,0 C 0,0 5.908,1.632 10.375,-1.982 8.382,-0.991 6.184,0.7 0,0"
             style="fill:#000000;fill-opacity:1;fill-rule:nonzero;stroke:none"
             id="path94" /></g><g
           id="g96"
           transform="translate(15.8257,66.9502)"><path
             d="M 0,0 C 0,0 5.908,1.632 10.375,-1.982 8.382,-0.991 6.184,0.7 0,0 z"
             style="fill:none;stroke:#231f20;stroke-opacity:1;stroke-width:1;stroke-linecap:butt;stroke-linejoin:miter;stroke-miterlimit:10;stroke-dasharray:none"
             id="path98" /></g><g
           id="g100"
           transform="translate(13.2607,66.2515)"><path
             d="m 0,0 -4.203,0 c 0,0 -3.024,-0.372 -3.024,-3.031 0,-2.623 -0.175,-6.761 -0.175,-6.761 l 0.467,6.877 c 0,0 0.735,2.565 3.125,2.565 l 4.218,0 L 0,0 z"
             style="fill:#000000;fill-opacity:1;fill-rule:nonzero;stroke:none"
             id="path102" /></g><g
           id="g104"
           transform="translate(13.2607,66.2515)"><path
             d="m 0,0 -4.203,0 c 0,0 -3.024,-0.372 -3.024,-3.031 0,-2.623 -0.175,-6.761 -0.175,-6.761 l 0.467,6.877 c 0,0 0.735,2.565 3.125,2.565 l 4.218,0 L 0,0 z"
             style="fill:none;stroke:#231f20;stroke-opacity:1;stroke-width:1;stroke-linecap:butt;stroke-linejoin:miter;stroke-miterlimit:10;stroke-dasharray:none"
             id="path106" /></g><g
           id="g108"
           transform="translate(16.9902,66.1968)"><path
             d="m 0,0 4.03,0 c 0,0 2.9,-0.368 2.9,-2.998 0,-2.593 0.167,-6.685 0.167,-6.685 L 6.65,-2.882 c 0,0 -0.706,2.535 -2.997,2.535 l -4.045,0 L 0,0 z"
             style="fill:#000000;fill-opacity:1;fill-rule:nonzero;stroke:none"
             id="path110" /></g><g
           id="g112"
           transform="translate(16.9902,66.1968)"><path
             d="m 0,0 4.03,0 c 0,0 2.9,-0.368 2.9,-2.998 0,-2.593 0.167,-6.685 0.167,-6.685 L 6.65,-2.882 c 0,0 -0.706,2.535 -2.997,2.535 l -4.045,0 L 0,0 z"
             style="fill:none;stroke:#231f20;stroke-opacity:1;stroke-width:1;stroke-linecap:butt;stroke-linejoin:miter;stroke-miterlimit:10;stroke-dasharray:none"
             id="path114" /></g><g
           id="g116"
           transform="translate(13.6689,65.9014)"><path
             d="m 0,0 c 0,0 -10.141,-1.267 -3.934,-9.397 0,0 -6.032,7.518 3.934,9.397"
             style="fill:#000000;fill-opacity:1;fill-rule:nonzero;stroke:none"
             id="path118" /></g><g
           id="g120"
           transform="translate(13.6689,65.9014)"><path
             d="m 0,0 c 0,0 -10.141,-1.267 -3.934,-9.397 0,0 -6.032,7.518 3.934,9.397 z"
             style="fill:none;stroke:#231f20;stroke-opacity:1;stroke-width:1;stroke-linecap:butt;stroke-linejoin:miter;stroke-miterlimit:10;stroke-dasharray:none"
             id="path122" /></g><g
           id="g124"
           transform="translate(16.4663,65.6836)"><path
             d="m 0,0 c 0,0 10.29,-1.269 3.992,-9.4 0,0 6.119,7.52 -3.992,9.4"
             style="fill:#000000;fill-opacity:1;fill-rule:nonzero;stroke:none"
             id="path126" /></g><g
           id="g128"
           transform="translate(16.4663,65.6836)"><path
             d="m 0,0 c 0,0 10.29,-1.269 3.992,-9.4 0,0 6.119,7.52 -3.992,9.4 z"
             style="fill:none;stroke:#231f20;stroke-opacity:1;stroke-width:1;stroke-linecap:butt;stroke-linejoin:miter;stroke-miterlimit:10;stroke-dasharray:none"
             id="path130" /></g><g
           id="g132"
           transform="translate(13.9312,65.6387)"><path
             d="m 0,0 c 0,0 -1.486,-2.315 0.393,-2.666 0,0 -1.835,0.131 -0.393,2.666"
             style="fill:#000000;fill-opacity:1;fill-rule:nonzero;stroke:none"
             id="path134" /></g><g
           id="g136"
           transform="translate(13.9312,65.6387)"><path
             d="m 0,0 c 0,0 -1.486,-2.315 0.393,-2.666 0,0 -1.835,0.131 -0.393,2.666 z"
             style="fill:none;stroke:#231f20;stroke-opacity:1;stroke-width:1;stroke-linecap:butt;stroke-linejoin:miter;stroke-miterlimit:10;stroke-dasharray:none"
             id="path138" /></g><g
           id="g140"
           transform="translate(15.8105,62.9287)"><path
             d="M 0,0 C 0,0 1.96,0.132 0.42,2.667 0.42,2.667 2.008,0.35 0,0"
             style="fill:#000000;fill-opacity:1;fill-rule:nonzero;stroke:#231f20;stroke-opacity:1;stroke-width:1;stroke-linecap:butt;stroke-linejoin:miter;stroke-miterlimit:10;stroke-dasharray:none"
             id="path142" /></g><path
           d="m 14.98,75.956 0.35,0 0,43.538 -0.35,0 0,-43.538 z"
           style="fill:#000000;fill-opacity:1;fill-rule:nonzero;stroke:#231f20;stroke-opacity:1;stroke-width:1;stroke-linecap:butt;stroke-linejoin:miter;stroke-miterlimit:10;stroke-dasharray:none"
           id="path144" /><g
           id="g146"
           transform="translate(121.2998,78.937)"><path
             d="m 0,0 c 0,-2.281 -1.849,-4.129 -4.13,-4.129 -2.279,0 -4.128,1.848 -4.128,4.129 0,2.281 1.849,4.129 4.128,4.129 C -1.849,4.129 0,2.281 0,0 z"
             style="fill:none;stroke:#000000;stroke-opacity:1;stroke-width:1;stroke-linecap:butt;stroke-linejoin:miter;stroke-miterlimit:10;stroke-dasharray:none"
             id="path148" /></g><g
           id="g150"
           transform="translate(110.8193,85.2368)"><path
             d="m 0,0 c 0,0 3.387,1.747 3.862,2.54 0,0 3.389,-0.105 4.925,0 0,0 2.329,-1.958 3.969,-2.54 0,0 1.219,-2.913 2.435,-4.023 0,0 -0.423,-3.759 0.053,-4.712 0,0 -2.064,-2.594 -2.381,-4.129 0,0 -2.701,-1.059 -4.182,-2.33 0,0 -3.493,0.266 -4.819,-0.104 0,0 -2.328,2.063 -3.968,2.487 0,0 -1.695,3.6 -2.383,4.129 0,0 0.371,4.077 -0.052,4.605 0,0 1.798,2.436 2.541,4.077 z"
             style="fill:none;stroke:#000000;stroke-opacity:1;stroke-width:1;stroke-linecap:butt;stroke-linejoin:miter;stroke-miterlimit:10;stroke-dasharray:none"
             id="path152" /></g><g
           id="g154"
           transform="translate(107.3564,88.8735)"><path
             d="m 0,0 c 0,0 5.319,2.742 6.066,3.989 0,0 5.319,-0.167 7.73,0 0,0 3.656,-3.076 6.232,-3.989 0,0 1.912,-4.571 3.823,-6.317 0,0 -0.665,-5.9 0.084,-7.397 0,0 -3.243,-4.071 -3.741,-6.481 0,0 -4.238,-1.663 -6.566,-3.657 0,0 -5.484,0.415 -7.562,-0.166 0,0 -3.657,3.24 -6.233,3.906 0,0 -2.659,5.652 -3.738,6.482 0,0 0.582,6.4 -0.084,7.23 0,0 2.826,3.823 3.989,6.4 z"
             style="fill:none;stroke:#000000;stroke-opacity:1;stroke-width:1;stroke-linecap:butt;stroke-linejoin:miter;stroke-miterlimit:10;stroke-dasharray:none"
             id="path156" /></g><g
           id="g158"
           transform="translate(104.0781,92.0991)"><path
             d="m 0,0 c 0,0 7.089,3.656 8.086,5.317 0,0 7.088,-0.221 10.301,0 0,0 4.874,-4.098 8.307,-5.317 0,0 2.547,-6.092 5.094,-8.417 0,0 -0.887,-7.865 0.111,-9.858 0,0 -4.32,-5.428 -4.983,-8.639 0,0 -5.649,-2.216 -8.751,-4.875 0,0 -7.311,0.555 -10.079,-0.221 0,0 -4.874,4.32 -8.308,5.205 0,0 -3.544,7.533 -4.983,8.641 0,0 0.774,8.529 -0.111,9.635 0,0 3.766,5.096 5.316,8.529 z"
             style="fill:none;stroke:#000000;stroke-opacity:1;stroke-width:1;stroke-linecap:butt;stroke-linejoin:miter;stroke-miterlimit:10;stroke-dasharray:none"
             id="path160" /></g><g
           id="g162"
           transform="translate(99.7363,96.2295)"><path
             d="m 0,0 c 0,0 8.399,2.681 10.947,6.346 0,0 7.052,-1.405 13.069,0 0,0 4.147,-5.076 10.994,-6.276 0,0 1.411,-7.622 6.423,-11.082 0,0 -2.26,-6.21 -0.275,-12.574 0,0 -5.479,-6.885 -6.323,-10.959 0,0 -6.973,-3.161 -10.906,-6.534 0,0 -9.47,1.053 -12.982,0.069 0,0 -5.158,5.436 -10.947,6.072 0,0 -1.058,6.917 -6.352,11.082 0,0 1.419,11.231 0.296,12.637 0,0 4.804,6.183 6.056,11.219 z"
             style="fill:none;stroke:#000000;stroke-opacity:1;stroke-width:1;stroke-linecap:butt;stroke-linejoin:miter;stroke-miterlimit:10;stroke-dasharray:none"
             id="path164" /></g><g
           id="g166"
           transform="translate(96.5684,99.8682)"><path
             d="m 0,0 c 0,0 11.286,3.138 12.663,8.324 0,0 8.998,-3.776 16.128,0 0,0 3.458,-6.529 13.339,-7.799 0,0 1.058,-9.246 7.646,-13.708 0,0 -3.836,-9.796 0.175,-15.435 0,0 -6.974,-4.243 -7.805,-13.528 0,0 -9.051,-1.16 -13.567,-8.218 0,0 -8.893,4.094 -15.916,0.241 0,0 -4.554,7.17 -13.009,8.15 0,0 -1.92,10.455 -7.804,13.53 0,0 3.414,8.782 -0.173,15.089 0,0 7.045,5.621 8.323,13.354 z"
             style="fill:none;stroke:#000000;stroke-opacity:1;stroke-width:1;stroke-linecap:butt;stroke-linejoin:miter;stroke-miterlimit:10;stroke-dasharray:none"
             id="path168" /></g><g
           id="g170"
           transform="translate(90.6963,105.8022)"><path
             d="m 0,0 c 0,0 14.722,-3.254 16.202,10.653 0,0 9.319,-11.579 20.641,0 0,0 1.807,-14.121 16.644,-10.653 0,0 -3.72,-13.526 10.208,-16.869 0,0 -11.07,-9.785 0.223,-19.751 0,0 -14.151,-3.163 -9.987,-17.31 0,0 -13.376,3.878 -17.533,-9.766 0,0 -10.029,10.045 -20.196,-0.444 0,0 -1.267,12.606 -16.645,10.432 0,0 4.472,12.02 -9.987,17.31 0,0 10.965,8.474 -0.221,19.308 0,0 13.727,3.247 10.651,17.09 z"
             style="fill:none;stroke:#000000;stroke-opacity:1;stroke-width:1;stroke-linecap:butt;stroke-linejoin:miter;stroke-miterlimit:10;stroke-dasharray:none"
             id="path172" /></g><g
           id="g174"
           transform="translate(77.7153,89.4531)"><path
             d="M 0,0 78.912,-20.821"
             style="fill:none;stroke:#000000;stroke-opacity:1;stroke-width:1;stroke-linecap:butt;stroke-linejoin:miter;stroke-miterlimit:10;stroke-dasharray:none"
             id="path176" /></g><g
           id="g178"
           transform="translate(77.8921,118.3218)"><path
             d="M 0,0 78.981,-78.875"
             style="fill:none;stroke:#000000;stroke-opacity:1;stroke-width:1;stroke-linecap:butt;stroke-linejoin:miter;stroke-miterlimit:10;stroke-dasharray:none"
             id="path180" /></g><g
           id="g182"
           transform="translate(127.8652,39.3408)"><path
             d="M 0,0 -21.388,79.086"
             style="fill:none;stroke:#000000;stroke-opacity:1;stroke-width:1;stroke-linecap:butt;stroke-linejoin:miter;stroke-miterlimit:10;stroke-dasharray:none"
             id="path184" /></g><g
           id="g186"
           transform="translate(128.0752,118.3218)"><path
             d="M 0,0 -21.703,-78.768"
             style="fill:none;stroke:#000000;stroke-opacity:1;stroke-width:1;stroke-linecap:butt;stroke-linejoin:miter;stroke-miterlimit:10;stroke-dasharray:none"
             id="path188" /></g><g
           id="g190"
           transform="translate(156.5557,118.3218)"><path
             d="M 0,0 -78.664,-78.768"
             style="fill:none;stroke:#000000;stroke-opacity:1;stroke-width:1;stroke-linecap:butt;stroke-linejoin:miter;stroke-miterlimit:10;stroke-dasharray:none"
             id="path192" /></g><g
           id="g194"
           transform="translate(77.7852,68.667)"><path
             d="M 0,0 78.981,21.068 0,0 z"
             style="fill:none;stroke:#000000;stroke-opacity:1;stroke-width:1;stroke-linecap:butt;stroke-linejoin:miter;stroke-miterlimit:10;stroke-dasharray:none"
             id="path196" /></g></g></g></g></svg>