<?xml version="1.0" encoding="UTF-8" standalone="no"?>
<!-- Created with Inkscape (http://www.inkscape.org/) -->

<svg
   xmlns:dc="http://purl.org/dc/elements/1.1/"
   xmlns:cc="http://creativecommons.org/ns#"
   xmlns:rdf="http://www.w3.org/1999/02/22-rdf-syntax-ns#"
   xmlns:svg="http://www.w3.org/2000/svg"
   xmlns="http://www.w3.org/2000/svg"
   xmlns:sodipodi="http://sodipodi.sourceforge.net/DTD/sodipodi-0.dtd"
   xmlns:inkscape="http://www.inkscape.org/namespaces/inkscape"
   id="svg2"
   version="1.1"
   inkscape:version="0.48.3.1 r9886"
   width="638.75"
   height="154.98751"
   xml:space="preserve"
   sodipodi:docname="logo.png"><metadata
     id="metadata8"><rdf:RDF><cc:Work
         rdf:about=""><dc:format>image/svg+xml</dc:format><dc:type
           rdf:resource="http://purl.org/dc/dcmitype/StillImage" /><dc:title></dc:title></cc:Work></rdf:RDF></metadata><defs
     id="defs6"><clipPath
       clipPathUnits="userSpaceOnUse"
       id="clipPath22"><path
         d="M 0,0 511,0 511,124 0,124 0,0 z"
         id="path24" /></clipPath></defs><sodipodi:namedview
     pagecolor="#ffffff"
     bordercolor="#666666"
     borderopacity="1"
     objecttolerance="10"
     gridtolerance="10"
     guidetolerance="10"
     inkscape:pageopacity="0"
     inkscape:pageshadow="2"
     inkscape:window-width="1669"
     inkscape:window-height="995"
     id="namedview4"
     showgrid="false"
     inkscape:zoom="1.009599"
     inkscape:cx="400.96637"
     inkscape:cy="77.943411"
     inkscape:window-x="-3"
     inkscape:window-y="-3"
     inkscape:window-maximized="1"
     inkscape:current-layer="g10" /><g
     id="g10"
     inkscape:groupmode="layer"
     inkscape:label="logo"
     transform="matrix(1.25,0,0,-1.25,0,154.98751)"><g
       id="g12"><path
         d="m 16.855,123.627 57.508,0 0,-8.688 -22.664,0 0,-86.73 -10.539,0 0,86.59 -24.305,0 0,8.828 z"
         style="fill:#000000;fill-opacity:1;fill-rule:nonzero;stroke:none"
         id="path14" /></g><g
       id="g16"><g
         id="g18"
         transform="translate(0,-0.00999451)"><g
           id="g20" /><g
           id="g26"><g
             clip-path="url(#clipPath22)"
             id="g28"><g
               id="g30"><path
                 d="m 16.855,123.637 57.508,0 0,-8.688 -22.664,0 0,-86.73 -10.539,0 0,86.59 -24.305,0 0,8.828 z"
                 style="fill:none;stroke:#000000;stroke-opacity:1;stroke-width:1;stroke-linecap:butt;stroke-linejoin:miter;stroke-miterlimit:10;stroke-dasharray:none"
                 id="path32" /><path
                 d="m 77.902,84.617 c 0,0 0.75,13.313 21.684,13.313 20.934,0 22.43,-11.961 22.43,-11.961 l 0,-12.606 c 0,0 0,-12.07 -12.067,-12.07 l -13.746,0.25 c 0,0 -7.832,-0.852 -7.832,-7.906 0,-7.047 0.07,-7.543 0.07,-7.543 0,0 -1.421,-8.621 11.18,-8.621 12.606,0 12.035,9.043 12.035,9.043 l 10.324,0 0,-4.629 c 0,0 -0.14,-13.813 -21.503,-13.813 -21.364,0 -22.645,12.602 -22.645,12.602 l 0.07,43.941 z"
                 style="fill:none;stroke:#000000;stroke-opacity:1;stroke-width:1;stroke-linecap:butt;stroke-linejoin:miter;stroke-miterlimit:10;stroke-dasharray:none"
                 id="path34" /><path
                 d="M 99.574,97.926 C 78.641,97.926 77.898,84.625 77.898,84.625 L 77.824,40.676 c 0,0 1.289,-12.602 22.653,-12.602 21.363,0 21.5,13.824 21.5,13.824 l 0,4.625 -10.329,0 c 0,0 0.582,-9.046 -12.023,-9.046 -12.605,0 -11.176,8.625 -11.176,8.625 0,0 -0.074,0.5 -0.074,7.546 0,7.051 7.824,7.903 7.824,7.903 l 13.75,-0.25 c 12.071,0 12.074,12.074 12.074,12.074 l 0,12.602 c 0,0 -1.511,11.949 -22.449,11.949 z m 0.403,-9.477 c 10.386,0.145 11.671,-6.625 11.671,-6.625 l -0.125,-4.75 c 0,0 -1.07,-6.625 -8.046,-6.625 -6.981,0 -8.352,0.074 -8.352,0.074 0,0 -3.715,0.036 -6.602,-2.847 l 0,14.949 c 0,0 1.911,5.695 11.454,5.824 z"
                 style="fill:#000000;fill-opacity:1;fill-rule:nonzero;stroke:none"
                 id="path36" /><path
                 d="m 88.516,67.668 0,14.953 c 0,0 1.922,5.707 11.461,5.84 10.39,0.141 11.679,-6.625 11.679,-6.625 l -0.14,-4.77 c 0,0 -1.071,-6.621 -8.047,-6.621 -6.981,0 -8.332,0.071 -8.332,0.071 0,0 -3.739,0.035 -6.621,-2.848 z"
                 style="fill:none;stroke:#000000;stroke-opacity:1;stroke-width:1;stroke-linecap:butt;stroke-linejoin:miter;stroke-miterlimit:10;stroke-dasharray:none"
                 id="path38" /><path
                 d="m 182.074,97.926 c -20.933,0 -21.676,-13.301 -21.676,-13.301 l -0.074,-43.949 c 0,0 1.289,-12.602 22.653,-12.602 21.363,0 21.5,13.824 21.5,13.824 l 0,4.625 -10.329,0 c 0,0 0.582,-9.046 -12.023,-9.046 -12.605,0 -11.199,8.625 -11.199,8.625 0,0 -0.074,0.5 -0.074,7.546 0,7.051 7.847,7.903 7.847,7.903 l 13.727,-0.25 c 12.07,0 12.074,12.074 12.074,12.074 l 0,12.602 c 0,0 -1.488,11.949 -22.426,11.949 z m 0.403,-9.477 c 10.386,0.145 11.671,-6.625 11.671,-6.625 L 194,77.074 c 0,0 -1.07,-6.625 -8.051,-6.625 -6.976,0 -8.324,0.074 -8.324,0.074 0,0 -3.742,0.036 -6.625,-2.847 l 0,14.949 c 0,0 1.934,5.695 11.477,5.824 z"
                 style="fill:#000000;fill-opacity:1;fill-rule:nonzero;stroke:none"
                 id="path40" /><path
                 d="m 160.395,84.617 c 0,0 0.746,13.313 21.683,13.313 20.934,0 22.43,-11.961 22.43,-11.961 l 0,-12.606 c 0,0 0,-12.07 -12.07,-12.07 l -13.743,0.25 c 0,0 -7.836,-0.852 -7.836,-7.906 0,-7.047 0.075,-7.543 0.075,-7.543 0,0 -1.426,-8.621 11.179,-8.621 12.606,0 12.032,9.043 12.032,9.043 l 10.328,0 0,-4.629 c 0,0 -0.145,-13.813 -21.504,-13.813 -21.364,0 -22.645,12.602 -22.645,12.602 l 0.071,43.941 z"
                 style="fill:none;stroke:#000000;stroke-opacity:1;stroke-width:1;stroke-linecap:butt;stroke-linejoin:miter;stroke-miterlimit:10;stroke-dasharray:none"
                 id="path42" /><path
                 d="m 171.004,67.668 0,14.953 c 0,0 1.922,5.707 11.465,5.84 10.386,0.141 11.676,-6.625 11.676,-6.625 l -0.141,-4.77 c 0,0 -1.066,-6.621 -8.047,-6.621 -6.977,0 -8.332,0.071 -8.332,0.071 0,0 -3.738,0.035 -6.621,-2.848 z"
                 style="fill:none;stroke:#000000;stroke-opacity:1;stroke-width:1;stroke-linecap:butt;stroke-linejoin:miter;stroke-miterlimit:10;stroke-dasharray:none"
                 id="path44" /><path
                 d="m 136.438,123.781 10.254,0 0,-95.492 -10.254,0 0,95.492 z"
                 style="fill:#000000;fill-opacity:1;fill-rule:nonzero;stroke:#000000;stroke-opacity:1;stroke-width:1;stroke-linecap:butt;stroke-linejoin:miter;stroke-miterlimit:10;stroke-dasharray:none"
                 id="path46" /><path
                 d="m 242.93,88.637 2.242,9.293 -11.43,0 c 0,0 -17.836,0.109 -17.836,-16.555 l 0,-53.086 10.469,0 0,51.699 c 0,0 -0.645,8.543 9.398,8.543 l 7.157,0.106 z"
                 style="fill:#000000;fill-opacity:1;fill-rule:nonzero;stroke:#000000;stroke-opacity:1;stroke-width:1;stroke-linecap:butt;stroke-linejoin:miter;stroke-miterlimit:10;stroke-dasharray:none"
                 id="path48" /><path
                 d="m 275.426,98.148 c -21.364,0 -21.5,-13.824 -21.5,-13.824 l 0,-4.625 10.324,0 c 0,0 -0.578,9.051 12.023,9.051 12.606,0 11.204,-8.625 11.204,-8.625 0,0 0.046,-0.5 0.046,-7.551 0,-7.051 -7.824,-7.898 -7.824,-7.898 l -13.75,0.25 c -12.07,0 -12.051,-12.074 -12.051,-12.074 l 0,-12.602 c 0,0 1.493,-11.949 22.426,-11.949 20.938,0 21.676,13.301 21.676,13.301 l 0.074,43.949 c 0,0 -1.289,12.597 -22.648,12.597 z m 11.972,-39.597 0,-14.949 c 0,0 -1.933,-5.719 -11.472,-5.852 -10.391,-0.145 -11.676,6.625 -11.676,6.625 l 0.148,4.773 c 0,0 1.075,6.625 8.051,6.625 6.981,0 8.324,-0.074 8.324,-0.074 0,0 3.743,-0.035 6.625,2.852 z"
                 style="fill:#000000;fill-opacity:1;fill-rule:nonzero;stroke:none"
                 id="path50" /><path
                 d="m 298.004,41.605 c 0,0 -0.746,-13.316 -21.684,-13.316 -20.933,0 -22.429,11.961 -22.429,11.961 l 0,12.605 c 0,0 0,12.071 12.07,12.071 l 13.742,-0.25 c 0,0 7.832,0.855 7.832,7.906 0,7.047 -0.07,7.547 -0.07,7.547 0,0 1.426,8.617 -11.18,8.617 -12.601,0 -12.035,-9.043 -12.035,-9.043 l -10.324,0 0,4.629 c 0,0 0.144,13.813 21.508,13.813 21.359,0 22.64,-12.606 22.64,-12.606 l -0.07,-43.934 z"
                 style="fill:none;stroke:#000000;stroke-opacity:1;stroke-width:1;stroke-linecap:butt;stroke-linejoin:miter;stroke-miterlimit:10;stroke-dasharray:none"
                 id="path52" /><path
                 d="m 287.395,58.555 0,-14.957 c 0,0 -1.926,-5.707 -11.465,-5.836 -10.391,-0.145 -11.68,6.621 -11.68,6.621 l 0.145,4.769 c 0,0 1.066,6.625 8.046,6.625 6.977,0 8.332,-0.074 8.332,-0.074 0,0 3.735,-0.035 6.622,2.852 z"
                 style="fill:none;stroke:#000000;stroke-opacity:1;stroke-width:1;stroke-linecap:butt;stroke-linejoin:miter;stroke-miterlimit:10;stroke-dasharray:none"
                 id="path54" /><path
                 d="m 335.977,98.273 c -23.84,0 -23.375,-15.648 -23.375,-15.648 l 0.148,-67.949 c 0,0 0.129,-14.227 22.773,-14.227 22.645,0 21.528,15.528 21.528,15.528 0,0 -0.153,-4.137 -0.153,8.824 0,12.961 -15.945,14.941 -26.199,18.074 -9.683,1.137 -7.398,9.551 -7.398,9.551 0,11.679 13.801,9.551 13.801,9.551 22.503,0 20.222,15.375 20.222,15.375 l 0,6.273 c 0,0 2.488,14.648 -21.347,14.648 z m -1.301,-9.824 c 10.386,0.145 11.676,-6.625 11.676,-6.625 l -0.153,-4.75 c 0,0 -1.047,-6.625 -8.023,-6.625 -6.981,0 -8.352,0.074 -8.352,0.074 0,0 -3.738,0.036 -6.625,-2.847 l 0,14.949 c 0,0 1.934,5.695 11.477,5.824 z M 324,32.898 c 2.828,-3.175 6.5,-3.148 6.5,-3.148 0,0 1.324,0.074 8.176,0.074 6.847,0 7.898,-7.301 7.898,-7.301 l 0.125,-5.25 c 0,0 -1.254,-7.429 -11.449,-7.273 -9.363,0.145 -11.25,6.426 -11.25,6.426 l 0,16.472 z"
                 style="fill:#000000;fill-opacity:1;fill-rule:nonzero;stroke:none"
                 id="path56" /><path
                 d="m 312.605,82.621 c 0,0 -0.48,15.668 23.356,15.668 23.84,0 21.363,-14.672 21.363,-14.672 l 0,-6.265 c 0,0 2.281,-15.383 -20.222,-15.383 0,0 -13.813,2.136 -13.813,-9.539 0,0 -2.281,-8.403 7.406,-9.543 10.254,-3.133 26.203,-5.125 26.203,-18.086 0,-12.961 0.145,-8.832 0.145,-8.832 0,0 1.137,-15.524 -21.508,-15.524 -22.644,0 -22.785,14.243 -22.785,14.243 l -0.145,67.933 z"
                 style="fill:none;stroke:#000000;stroke-opacity:1;stroke-width:1;stroke-linecap:butt;stroke-linejoin:miter;stroke-miterlimit:10;stroke-dasharray:none"
                 id="path58" /><path
                 d="m 323.211,67.664 0,14.953 c 0,0 1.926,5.711 11.465,5.84 10.39,0.145 11.679,-6.621 11.679,-6.621 l -0.144,-4.774 c 0,0 -1.066,-6.621 -8.047,-6.621 -6.976,0 -8.332,0.071 -8.332,0.071 0,0 -3.734,0.035 -6.621,-2.848 z"
                 style="fill:none;stroke:#000000;stroke-opacity:1;stroke-width:1;stroke-linecap:butt;stroke-linejoin:miter;stroke-miterlimit:10;stroke-dasharray:none"
                 id="path60" /><path
                 d="m 323.992,32.891 0,-16.473 c 0,0 1.891,-6.285 11.258,-6.43 10.191,-0.156 11.461,7.297 11.461,7.297 l -0.141,5.25 c 0,0 -1.05,7.297 -7.898,7.297 -6.852,0 -8.18,-0.078 -8.18,-0.078 0,0 -3.668,-0.039 -6.5,3.137 z"
                 style="fill:none;stroke:#000000;stroke-opacity:1;stroke-width:1;stroke-linecap:butt;stroke-linejoin:miter;stroke-miterlimit:10;stroke-dasharray:none"
                 id="path62" /><path
                 d="m 369.289,28.359 0,56.254 c 0,0 1.992,13.387 22.219,13.387 20.219,0 22.5,-14.383 22.5,-14.383 l 0,-55.113 -10.684,0 0,51.98 c 0,0 0.145,7.977 -11.535,7.977 -11.68,0 -11.535,-7.547 -11.535,-7.547 l 0,-52.555 -10.965,0 z"
                 style="fill:#000000;fill-opacity:1;fill-rule:nonzero;stroke:#000000;stroke-opacity:1;stroke-width:1;stroke-linecap:butt;stroke-linejoin:miter;stroke-miterlimit:10;stroke-dasharray:none"
                 id="path64" /><path
                 d="m 450.602,97.852 c -23.36,0 -22.625,-14.653 -22.625,-14.653 l -0.153,-41.023 c 0,0 1.707,-14.102 22.926,-14.102 21.223,0 21.801,15.375 21.801,15.375 l 0,40.75 c 0,0 1.406,13.653 -21.949,13.653 z m -0.278,-9.125 c 12.129,0 11.403,-10.125 11.403,-10.125 l 0,-30.153 c 0,0 -0.305,-11.398 -11.329,-11.398 C 439.379,37.051 438.5,47.5 438.5,47.5 l 0.074,30.375 c 0,0 -0.379,10.852 11.75,10.852 z"
                 style="fill:#000000;fill-opacity:1;fill-rule:nonzero;stroke:none"
                 id="path66" /><path
                 d="m 427.965,83.191 c 0,0 -0.715,14.668 22.644,14.668 23.356,0 21.93,-13.671 21.93,-13.671 l 0,-40.731 c 0,0 -0.566,-15.379 -21.789,-15.379 -21.219,0 -22.93,14.098 -22.93,14.098 l 0.145,41.015 z"
                 style="fill:none;stroke:#000000;stroke-opacity:1;stroke-width:1;stroke-linecap:butt;stroke-linejoin:miter;stroke-miterlimit:10;stroke-dasharray:none"
                 id="path68" /><path
                 d="m 438.578,77.871 c 0,0 -0.371,10.867 11.758,10.867 12.129,0 11.391,-10.129 11.391,-10.129 l 0,-30.171 c 0,0 -0.297,-11.387 -11.317,-11.387 -11.019,0 -11.906,10.441 -11.906,10.441 l 0.074,30.379 z"
                 style="fill:none;stroke:#000000;stroke-opacity:1;stroke-width:1;stroke-linecap:butt;stroke-linejoin:miter;stroke-miterlimit:10;stroke-dasharray:none"
                 id="path70" /><path
                 d="m 22.254,68.23 c 0,-3.007 -2.438,-5.441 -5.445,-5.441 -3.008,0 -5.446,2.434 -5.446,5.441 0,3.008 2.438,5.446 5.446,5.446 3.007,0 5.445,-2.438 5.445,-5.446"
                 style="fill:#080604;fill-opacity:1;fill-rule:nonzero;stroke:none"
                 id="path72" /><path
                 d="m 22.254,68.23 c 0,-3.007 -2.438,-5.441 -5.445,-5.441 -3.008,0 -5.446,2.434 -5.446,5.441 0,3.008 2.438,5.446 5.446,5.446 3.007,0 5.445,-2.438 5.445,-5.446 z"
                 style="fill:none;stroke:#080604;stroke-opacity:1;stroke-width:1;stroke-linecap:butt;stroke-linejoin:miter;stroke-miterlimit:10;stroke-dasharray:none"
                 id="path74" /><path
                 d="m 19.496,62.027 c 0,-1.558 -1.266,-2.828 -2.824,-2.828 -1.563,0 -2.828,1.27 -2.828,2.828 0,1.563 1.265,2.825 2.828,2.825 1.558,0 2.824,-1.262 2.824,-2.825"
                 style="fill:#080604;fill-opacity:1;fill-rule:nonzero;stroke:none"
                 id="path76" /><path
                 d="m 19.496,62.027 c 0,-1.558 -1.266,-2.828 -2.824,-2.828 -1.563,0 -2.828,1.27 -2.828,2.828 0,1.563 1.265,2.825 2.828,2.825 1.558,0 2.824,-1.262 2.824,-2.825 z"
                 style="fill:none;stroke:#080604;stroke-opacity:1;stroke-width:1;stroke-linecap:butt;stroke-linejoin:miter;stroke-miterlimit:10;stroke-dasharray:none"
                 id="path78" /><path
                 d="m 9.918,73.539 0,-7.582 4.203,-4.344 0.481,1.379 -4.133,3.238 -0.551,7.309 z"
                 style="fill:#080604;fill-opacity:1;fill-rule:nonzero;stroke:#080604;stroke-opacity:1;stroke-width:1;stroke-linecap:butt;stroke-linejoin:miter;stroke-miterlimit:10;stroke-dasharray:none"
                 id="path80" /><path
                 d="m 23.891,73.539 -0.243,-7.578 -4.336,-4.207 -0.437,1.394 4.23,3.106 0.786,7.285 z"
                 style="fill:#080604;fill-opacity:1;fill-rule:nonzero;stroke:#080604;stroke-opacity:1;stroke-width:1;stroke-linecap:butt;stroke-linejoin:miter;stroke-miterlimit:10;stroke-dasharray:none"
                 id="path82" /><path
                 d="m 14.121,61.613 c 0,0 -5.93,1.93 -10.406,-2.343 1.996,1.171 4.203,3.171 10.406,2.343"
                 style="fill:#080604;fill-opacity:1;fill-rule:nonzero;stroke:none"
                 id="path84" /><path
                 d="m 14.121,61.613 c 0,0 -5.93,1.93 -10.406,-2.343 1.996,1.171 4.203,3.171 10.406,2.343 z"
                 style="fill:none;stroke:#080604;stroke-opacity:1;stroke-width:1;stroke-linecap:butt;stroke-linejoin:miter;stroke-miterlimit:10;stroke-dasharray:none"
                 id="path86" /><path
                 d="m 17.5,61.477 c 0,0 6.984,1.929 12.266,-2.344 -2.356,1.172 -4.954,3.172 -12.266,2.344"
                 style="fill:#080604;fill-opacity:1;fill-rule:nonzero;stroke:none"
                 id="path88" /><path
                 d="m 17.5,61.477 c 0,0 6.984,1.929 12.266,-2.344 -2.356,1.172 -4.954,3.172 -12.266,2.344 z"
                 style="fill:none;stroke:#080604;stroke-opacity:1;stroke-width:1;stroke-linecap:butt;stroke-linejoin:miter;stroke-miterlimit:10;stroke-dasharray:none"
                 id="path90" /><path
                 d="m 14.465,60.648 -4.973,0 c 0,0 -3.574,-0.437 -3.574,-3.582 0,-3.105 -0.207,-7.996 -0.207,-7.996 l 0.551,8.133 c 0,0 0.871,3.035 3.699,3.035 l 4.988,0 -0.484,0.41 z"
                 style="fill:#080604;fill-opacity:1;fill-rule:nonzero;stroke:#080604;stroke-opacity:1;stroke-width:1;stroke-linecap:butt;stroke-linejoin:miter;stroke-miterlimit:10;stroke-dasharray:none"
                 id="path92" /><path
                 d="m 18.875,60.586 4.766,0 c 0,0 3.429,-0.438 3.429,-3.543 0,-3.07 0.2,-7.906 0.2,-7.906 l -0.532,8.039 c 0,0 -0.832,3 -3.543,3 l -4.785,0 0.465,0.41 z"
                 style="fill:#080604;fill-opacity:1;fill-rule:nonzero;stroke:#080604;stroke-opacity:1;stroke-width:1;stroke-linecap:butt;stroke-linejoin:miter;stroke-miterlimit:10;stroke-dasharray:none"
                 id="path94" /><path
                 d="m 14.949,60.238 c 0,0 -11.996,-1.5 -4.652,-11.117 0,0 -7.137,8.891 4.652,11.117"
                 style="fill:#080604;fill-opacity:1;fill-rule:nonzero;stroke:none"
                 id="path96" /><path
                 d="m 14.949,60.238 c 0,0 -11.996,-1.5 -4.652,-11.117 0,0 -7.137,8.891 4.652,11.117 z"
                 style="fill:none;stroke:#080604;stroke-opacity:1;stroke-width:1;stroke-linecap:butt;stroke-linejoin:miter;stroke-miterlimit:10;stroke-dasharray:none"
                 id="path98" /><path
                 d="m 18.258,59.977 c 0,0 12.164,-1.497 4.719,-11.114 0,0 7.238,8.891 -4.719,11.114"
                 style="fill:#080604;fill-opacity:1;fill-rule:nonzero;stroke:none"
                 id="path100" /><path
                 d="m 18.258,59.977 c 0,0 12.164,-1.497 4.719,-11.114 0,0 7.238,8.891 -4.719,11.114 z"
                 style="fill:none;stroke:#080604;stroke-opacity:1;stroke-width:1;stroke-linecap:butt;stroke-linejoin:miter;stroke-miterlimit:10;stroke-dasharray:none"
                 id="path102" /><path
                 d="m 15.258,59.926 c 0,0 -1.758,-2.738 0.465,-3.153 0,0 -2.172,0.157 -0.465,3.153"
                 style="fill:#080604;fill-opacity:1;fill-rule:nonzero;stroke:none"
                 id="path104" /><path
                 d="m 15.258,59.926 c 0,0 -1.758,-2.738 0.465,-3.153 0,0 -2.172,0.157 -0.465,3.153 z"
                 style="fill:none;stroke:#080604;stroke-opacity:1;stroke-width:1;stroke-linecap:butt;stroke-linejoin:miter;stroke-miterlimit:10;stroke-dasharray:none"
                 id="path106" /><path
                 d="m 17.48,56.723 c 0,0 2.321,0.152 0.497,3.148 0,0 1.878,-2.734 -0.497,-3.148"
                 style="fill:#080604;fill-opacity:1;fill-rule:nonzero;stroke:#080604;stroke-opacity:1;stroke-width:1;stroke-linecap:butt;stroke-linejoin:miter;stroke-miterlimit:10;stroke-dasharray:none"
                 id="path108" /><path
                 d="m 16.5,123.613 0.414,0 0,-51.488 -0.414,0 0,51.488 z"
                 style="fill:#080604;fill-opacity:1;fill-rule:nonzero;stroke:#080604;stroke-opacity:1;stroke-width:1;stroke-linecap:butt;stroke-linejoin:miter;stroke-miterlimit:10;stroke-dasharray:none"
                 id="path110" /><path
                 d="m 456.957,62.625 c 0,-3.586 -2.91,-6.496 -6.5,-6.496 -3.59,0 -6.496,2.91 -6.496,6.496 0,3.59 2.906,6.5 6.496,6.5 3.59,0 6.5,-2.91 6.5,-6.5 z"
                 style="fill:none;stroke:#000000;stroke-opacity:1;stroke-width:1;stroke-linecap:butt;stroke-linejoin:miter;stroke-miterlimit:10;stroke-dasharray:none"
                 id="path112" /><path
                 d="m 440.461,72.539 c 0,0 5.332,2.75 6.082,4 0,0 5.328,-0.168 7.746,0 0,0 3.668,-3.082 6.25,-4 0,0 1.914,-4.582 3.832,-6.332 0,0 -0.668,-5.914 0.082,-7.414 0,0 -3.25,-4.082 -3.746,-6.5 0,0 -4.254,-1.664 -6.586,-3.664 0,0 -5.496,0.414 -7.578,-0.168 0,0 -3.668,3.25 -6.25,3.914 0,0 -2.668,5.668 -3.75,6.5 0,0 0.582,6.418 -0.078,7.25 0,0 2.828,3.832 3.996,6.414 z"
                 style="fill:none;stroke:#000000;stroke-opacity:1;stroke-width:1;stroke-linecap:butt;stroke-linejoin:miter;stroke-miterlimit:10;stroke-dasharray:none"
                 id="path114" /><path
                 d="m 435.012,78.266 c 0,0 8.371,4.312 9.547,6.277 0,0 8.371,-0.262 12.168,0 0,0 5.753,-4.84 9.804,-6.277 0,0 3.012,-7.196 6.02,-9.942 0,0 -1.051,-9.289 0.129,-11.64 0,0 -5.102,-6.411 -5.887,-10.204 0,0 -6.668,-2.617 -10.332,-5.753 0,0 -8.633,0.652 -11.902,-0.262 0,0 -5.754,5.101 -9.809,6.148 0,0 -4.184,8.891 -5.883,10.199 0,0 0.914,10.075 -0.133,11.379 0,0 4.442,6.016 6.278,10.075 z"
                 style="fill:none;stroke:#000000;stroke-opacity:1;stroke-width:1;stroke-linecap:butt;stroke-linejoin:miter;stroke-miterlimit:10;stroke-dasharray:none"
                 id="path116" /><path
                 d="m 429.852,83.344 c 0,0 11.156,5.75 12.726,8.363 0,0 11.156,-0.344 16.211,0 0,0 7.668,-6.449 13.074,-8.363 0,0 4.008,-9.59 8.02,-13.25 0,0 -1.395,-12.375 0.172,-15.512 0,0 -6.797,-8.543 -7.84,-13.598 0,0 -8.891,-3.488 -13.774,-7.675 0,0 -11.503,0.875 -15.863,-0.344 0,0 -7.672,6.797 -13.074,8.191 0,0 -5.578,11.852 -7.844,13.598 0,0 1.219,13.422 -0.172,15.164 0,0 5.926,8.02 8.364,13.426 z"
                 style="fill:none;stroke:#000000;stroke-opacity:1;stroke-width:1;stroke-linecap:butt;stroke-linejoin:miter;stroke-miterlimit:10;stroke-dasharray:none"
                 id="path118" /><path
                 d="m 423.02,89.84 c 0,0 13.222,4.222 17.23,9.988 0,0 11.094,-2.211 20.566,0 0,0 6.524,-7.988 17.301,-9.875 0,0 2.223,-11.996 10.11,-17.441 0,0 -3.555,-9.774 -0.434,-19.789 0,0 -8.621,-10.836 -9.949,-17.25 0,0 -10.973,-4.973 -17.168,-10.282 0,0 -14.899,1.657 -20.426,0.106 0,0 -8.121,8.558 -17.23,9.558 0,0 -1.668,10.883 -10,17.442 0,0 2.238,17.676 0.468,19.887 0,0 7.559,9.73 9.532,17.656 z"
                 style="fill:none;stroke:#000000;stroke-opacity:1;stroke-width:1;stroke-linecap:butt;stroke-linejoin:miter;stroke-miterlimit:10;stroke-dasharray:none"
                 id="path120" /><path
                 d="m 418.035,95.566 c 0,0 17.762,4.938 19.93,13.102 0,0 14.16,-5.941 25.383,0 0,0 5.437,-10.273 20.992,-12.273 0,0 1.668,-14.551 12.035,-21.575 0,0 -6.035,-15.414 0.273,-24.289 0,0 -10.976,-6.676 -12.285,-21.293 0,0 -14.246,-1.828 -21.351,-12.937 0,0 -13.996,6.445 -25.047,0.379 0,0 -7.168,11.285 -20.477,12.828 0,0 -3.019,16.457 -12.281,21.293 0,0 5.375,13.824 -0.273,23.746 0,0 11.086,8.851 13.101,21.019 z"
                 style="fill:none;stroke:#000000;stroke-opacity:1;stroke-width:1;stroke-linecap:butt;stroke-linejoin:miter;stroke-miterlimit:10;stroke-dasharray:none"
                 id="path122" /><path
                 d="m 408.789,104.906 c 0,0 23.172,-5.125 25.5,16.77 0,0 14.672,-18.227 32.484,0 0,0 2.844,-22.227 26.2,-16.77 0,0 -5.856,-21.285 16.066,-26.547 0,0 -17.426,-15.402 0.352,-31.086 0,0 -22.274,-4.976 -15.719,-27.242 0,0 -21.055,6.102 -27.598,-15.371 0,0 -15.785,15.809 -31.785,-0.699 0,0 -1.988,19.84 -26.195,16.418 0,0 7.039,18.922 -15.719,27.242 0,0 17.262,13.336 -0.348,30.391 0,0 21.61,5.109 16.762,26.894 z"
                 style="fill:none;stroke:#000000;stroke-opacity:1;stroke-width:1;stroke-linecap:butt;stroke-linejoin:miter;stroke-miterlimit:10;stroke-dasharray:none"
                 id="path124" /><path
                 d="M 388.359,79.176 512.555,46.406"
                 style="fill:none;stroke:#000000;stroke-opacity:1;stroke-width:1;stroke-linecap:butt;stroke-linejoin:miter;stroke-miterlimit:10;stroke-dasharray:none"
                 id="path126" /><path
                 d="M 388.641,124.609 512.945,0.473"
                 style="fill:none;stroke:#000000;stroke-opacity:1;stroke-width:1;stroke-linecap:butt;stroke-linejoin:miter;stroke-miterlimit:10;stroke-dasharray:none"
                 id="path128" /><path
                 d="m 467.289,0.309 -33.66,124.468"
                 style="fill:none;stroke:#000000;stroke-opacity:1;stroke-width:1;stroke-linecap:butt;stroke-linejoin:miter;stroke-miterlimit:10;stroke-dasharray:none"
                 id="path130" /><path
                 d="M 467.621,124.609 433.461,0.641"
                 style="fill:none;stroke:#000000;stroke-opacity:1;stroke-width:1;stroke-linecap:butt;stroke-linejoin:miter;stroke-miterlimit:10;stroke-dasharray:none"
                 id="path132" /><path
                 d="M 512.445,124.609 388.641,0.641"
                 style="fill:none;stroke:#000000;stroke-opacity:1;stroke-width:1;stroke-linecap:butt;stroke-linejoin:miter;stroke-miterlimit:10;stroke-dasharray:none"
                 id="path134" /><path
                 d="M 388.473,46.465 512.777,79.621 388.473,46.465 z"
                 style="fill:none;stroke:#000000;stroke-opacity:1;stroke-width:1;stroke-linecap:butt;stroke-linejoin:miter;stroke-miterlimit:10;stroke-dasharray:none"
                 id="path136" /></g></g></g></g></g></g></svg>